<svg width="33" height="32" viewBox="0 0 33 32" fill="none" xmlns="http://www.w3.org/2000/svg">
<path d="M11.3333 29.3334C12.0697 29.3334 12.6667 28.7365 12.6667 28.0001C12.6667 27.2637 12.0697 26.6667 11.3333 26.6667C10.597 26.6667 10 27.2637 10 28.0001C10 28.7365 10.597 29.3334 11.3333 29.3334Z" stroke="#7E22CE" stroke-width="2" stroke-linecap="round" stroke-linejoin="round"/>
<path d="M25.9998 29.3334C26.7362 29.3334 27.3332 28.7365 27.3332 28.0001C27.3332 27.2637 26.7362 26.6667 25.9998 26.6667C25.2635 26.6667 24.6665 27.2637 24.6665 28.0001C24.6665 28.7365 25.2635 29.3334 25.9998 29.3334Z" stroke="#7E22CE" stroke-width="2" stroke-linecap="round" stroke-linejoin="round"/>
<path d="M3.3999 2.7334H6.06657L9.61324 19.2934C9.74334 19.8999 10.0808 20.442 10.5675 20.8265C11.0542 21.2111 11.6598 21.4139 12.2799 21.4001H25.3199C25.9268 21.3991 26.5152 21.1911 26.9879 20.8105C27.4607 20.4299 27.7894 19.8994 27.9199 19.3067L30.1199 9.40007H7.49324" stroke="#7E22CE" stroke-width="2" stroke-linecap="round" stroke-linejoin="round"/>
</svg>
